<svg xmlns="http://www.w3.org/2000/svg" xmlns:xlink="http://www.w3.org/1999/xlink" data-name="Layer 1" viewBox="0 0 512 512"><defs><linearGradient id="a" x1="256" x2="256" y1="12.71" y2="507.478" gradientUnits="userSpaceOnUse"><stop offset="0" stop-color="#00efd1"/><stop offset="1" stop-color="#00acea"/></linearGradient><linearGradient id="b" x1="381.5" x2="381.5" y1="12.71" y2="507.478" xlink:href="#a"/><linearGradient id="c" x1="381.556" x2="381.556" y1="12.71" y2="507.478" xlink:href="#a"/></defs><g data-name="&lt;Group&gt;"><path fill="url(#a)" d="M470.266,145H455V103.382A46.179,46.179,0,0,0,408.51,57H74.442A46.138,46.138,0,0,0,28,103.382V341H15.024A7.79,7.79,0,0,0,7,348.724v29.894A46.531,46.531,0,0,0,53.9,425H258.475a34.721,34.721,0,0,0,34.362,30H477.2a27.862,27.862,0,0,0,20.05-8.223,27.377,27.377,0,0,0,7.754-19.5V179.312A34.512,34.512,0,0,0,470.266,145ZM44,103.382A30.122,30.122,0,0,1,74.442,73H408.51A30.163,30.163,0,0,1,439,103.382V145H417V105.621A7.667,7.667,0,0,0,409.021,98H73.93A7.625,7.625,0,0,0,66,105.621V341H44ZM258,409H53.9C36.876,409,23,395.644,23,378.618V357H180.936l5.513,5.937A46.957,46.957,0,0,0,220.919,378H258Zm0-229.664V362H220.919a31.048,31.048,0,0,1-22.7-10.044l-7.891-8.469A7.916,7.916,0,0,0,184.441,341H82V114H401v31H292.813C273.748,145,258,160.248,258,179.336ZM489,427.389c0,.081-.016.039-.013.12a11.012,11.012,0,0,1-3.243,8.128A11.584,11.584,0,0,1,477.2,439H292.86c-10.3,0-18.86-7.934-18.86-18.2V179.359A18.586,18.586,0,0,1,292.837,161H470.242A18.5,18.5,0,0,1,489,179.336Z" data-name="&lt;Compound Path&gt;"/><path fill="url(#b)" d="M470,170H293a8,8,0,0,0-8,8V399a8,8,0,0,0,8,8H470a8,8,0,0,0,8-8V178A8,8,0,0,0,470,170Zm-8,221H301V186H462Z" data-name="&lt;Compound Path&gt;"/><path fill="url(#c)" d="M389.934,415H373.179a8,8,0,0,0,0,16h16.755a8,8,0,0,0,0-16Z" data-name="&lt;Path&gt;"/></g></svg>